<?xml version="1.0" encoding="UTF-8" standalone="no"?>
<!-- Created with Inkscape (http://www.inkscape.org/) -->

<svg
   xmlns:dc="http://purl.org/dc/elements/1.1/"
   xmlns:cc="http://creativecommons.org/ns#"
   xmlns:rdf="http://www.w3.org/1999/02/22-rdf-syntax-ns#"
   xmlns:svg="http://www.w3.org/2000/svg"
   xmlns="http://www.w3.org/2000/svg"
   xmlns:sodipodi="http://sodipodi.sourceforge.net/DTD/sodipodi-0.dtd"
   xmlns:inkscape="http://www.inkscape.org/namespaces/inkscape"
   width="30"
   height="30"
   id="svg2985"
   version="1.1"
   inkscape:version="0.92.3 (2405546, 2018-03-11)"
   sodipodi:docname="Bonsai.svg"
   inkscape:export-filename="Bonsai.png"
   inkscape:export-xdpi="1034.1727"
   inkscape:export-ydpi="1034.1727">
  <defs
     id="defs2987" />
  <sodipodi:namedview
     id="base"
     pagecolor="#474747"
     bordercolor="#666666"
     borderopacity="1.0"
     inkscape:pageopacity="0"
     inkscape:pageshadow="2"
     inkscape:zoom="8"
     inkscape:cx="18.855694"
     inkscape:cy="-8.763234"
     inkscape:document-units="mm"
     inkscape:current-layer="layer2"
     showgrid="false"
     inkscape:window-width="1735"
     inkscape:window-height="1080"
     inkscape:window-x="18"
     inkscape:window-y="51"
     inkscape:window-maximized="0"
     units="px"
     showguides="true"
     inkscape:guide-bbox="true">
    <sodipodi:guide
       orientation="0,1"
       position="-63.769531,15"
       id="guide4444"
       inkscape:locked="false"
       inkscape:label=""
       inkscape:color="rgb(0,0,255)" />
    <sodipodi:guide
       orientation="1,0"
       position="15,45.727539"
       id="guide4446"
       inkscape:locked="false"
       inkscape:label=""
       inkscape:color="rgb(0,0,255)" />
  </sodipodi:namedview>
  <metadata
     id="metadata2990">
    <rdf:RDF>
      <cc:Work
         rdf:about="">
        <dc:format>image/svg+xml</dc:format>
        <dc:type
           rdf:resource="http://purl.org/dc/dcmitype/StillImage" />
        <dc:title />
      </cc:Work>
    </rdf:RDF>
  </metadata>
  <g
     inkscape:groupmode="layer"
     id="layer2"
     inkscape:label="Layer 1">
    <circle
       style="fill:#ec2227;stroke-width:2"
       id="path1206"
       cx="15"
       cy="14.999983"
       r="15" />
    <path
       style="fill:#ffffff;stroke-width:0.17150483"
       d="M 12.261719,3.3691406 C 10.629678,3.3691406 9.2682741,4.5306656 8.9609375,6.0722656 8.710026,5.9336656 8.4207229,5.8580406 8.1113281,5.8691406 7.2755851,5.8997406 6.5846829,6.5771094 6.5390625,7.4121094 6.4876112,8.356809 7.2383742,9.138672 8.171875,9.138672 8.6772998,9.138672 9.1297256,8.909128 9.4296875,8.548828 9.8039131,9.131328 10.352292,9.592669 11.001953,9.855469 11.000923,9.877269 11,9.897922 11,9.919922 10.544312,9.632822 10.004099,9.466797 9.4257812,9.466797 7.7930554,9.466797 6.4707031,10.789375 6.4707031,12.421875 6.4707031,12.451775 6.4717987,12.482319 6.4726562,12.511719 6.1874437,12.433519 5.8793744,12.407572 5.5605469,12.451172 4.4905282,12.597772 3.6652473,13.503131 3.6132812,14.582031 3.5899566,15.068431 3.7193922,15.523644 3.9589844,15.902344 3.5960802,16.139244 3.3655752,16.559903 3.4003906,17.033203 3.4458394,17.647903 3.9546102,18.144081 4.5703125,18.175781 5.2786274,18.212181 5.8653957,17.654831 5.875,16.957031 6.1753049,16.956831 6.460597,16.897316 6.7226562,16.791016 7.3239521,16.628416 8.724685,16.338056 10.035156,16.722656 11.161771,17.053356 12.032706,18.191991 12.048828,18.212891 12.528528,19.216891 14.034304,19.882297 14.095703,20.529297 14.284701,22.524197 9.8150922,23.207978 7.2871094,23.892578 11.748187,27.635878 18.251813,27.557753 22.712891,23.814453 22.712891,23.814453 17.706849,23.155091 16.695312,20.337891 15.933831,18.216991 14.06936,17.995269 14.0625,17.230469 14.051696,16.037969 16.057563,16.009869 16.09375,14.542969 16.098553,14.348569 16.075459,14.174431 16.035156,14.019531 16.676927,13.964631 17.264204,13.72085 17.742188,13.34375 17.747675,13.35495 17.754278,13.365753 17.759766,13.376953 17.378168,13.666253 17.153215,14.151294 17.238281,14.683594 17.331409,15.265994 17.806308,15.727541 18.390625,15.806641 18.967738,15.884641 19.484167,15.599537 19.75,15.148438 20.137601,15.290038 20.55749,15.367188 20.994141,15.367188 22.757382,15.367188 24.225199,14.108453 24.548828,12.439453 25.359703,12.310953 25.968831,11.572384 25.890625,10.708984 25.822709,9.959484 25.22076,9.348678 24.472656,9.267578 24.206138,9.238778 23.952129,9.277034 23.722656,9.365234 23.058589,8.604634 22.083197,8.123047 20.994141,8.123047 20.018794,8.123047 19.133626,8.509919 18.482422,9.136719 18.058634,8.456019 17.387303,7.9457219 16.59375,7.7324219 17.052869,7.5005219 17.369207,7.0256625 17.371094,6.4765625 17.373666,5.7332625 16.819025,5.1260531 16.078125,5.0644531 15.785194,5.0399531 15.510353,5.1060281 15.275391,5.2363281 14.724346,4.1291281 13.582477,3.3691406 12.261719,3.3691406 Z M 14.435547,14.019531 C 14.460414,14.120331 14.476563,14.22775 14.476562,14.34375 14.476562,14.95285 12.900243,15.512469 12.216797,16.605469 11.783061,16.253769 11.265116,15.916759 10.732422,15.755859 9.800807,15.474159 8.5891055,15.578175 7.9140625,15.671875 8.004274,15.483575 8.0701388,15.279206 8.1054688,15.066406 8.5033599,15.265806 8.9505415,15.378906 9.4257812,15.378906 10.38501,15.378906 11.237274,14.922944 11.777344,14.214844 12.123097,14.440344 12.535004,14.570312 12.978516,14.570312 13.537107,14.570312 14.047259,14.362131 14.435547,14.019531 Z"
       id="path1082"
       inkscape:connector-curvature="0" />
  </g>
</svg>
