<?xml version="1.0" encoding="UTF-8" standalone="no"?>
<svg
   xmlns:dc="http://purl.org/dc/elements/1.1/"
   xmlns:cc="http://creativecommons.org/ns#"
   xmlns:rdf="http://www.w3.org/1999/02/22-rdf-syntax-ns#"
   xmlns:svg="http://www.w3.org/2000/svg"
   xmlns="http://www.w3.org/2000/svg"
   xmlns:sodipodi="http://sodipodi.sourceforge.net/DTD/sodipodi-0.dtd"
   xmlns:inkscape="http://www.inkscape.org/namespaces/inkscape"
   width="35mm"
   height="12mm"
   id="SvgGdi_output"
   version="1.1"
   sodipodi:docname="condition.svg"
   inkscape:version="0.92.1 r15371">
  <metadata
     id="metadata38">
    <rdf:RDF>
      <cc:Work
         rdf:about="">
        <dc:format>image/svg+xml</dc:format>
        <dc:type
           rdf:resource="http://purl.org/dc/dcmitype/StillImage" />
        <dc:title></dc:title>
      </cc:Work>
    </rdf:RDF>
  </metadata>
  <sodipodi:namedview
     pagecolor="#ffffff"
     bordercolor="#666666"
     borderopacity="1"
     objecttolerance="10"
     gridtolerance="10"
     guidetolerance="10"
     inkscape:pageopacity="0"
     inkscape:pageshadow="2"
     inkscape:window-width="3000"
     inkscape:window-height="1875"
     id="namedview36"
     showgrid="false"
     units="mm"
     inkscape:zoom="5.3034543"
     inkscape:cx="36.014576"
     inkscape:cy="21.541"
     inkscape:window-x="-13"
     inkscape:window-y="-13"
     inkscape:window-maximized="1"
     inkscape:current-layer="SvgGdi_output" />
  <g
     id="g4586"
     transform="matrix(0.68718683,0,0,0.68718683,-9.9791956,-7.4412202)">
    <g
       id="g4555">
      <circle
         r="30"
         style="opacity:1;fill:none;stroke:#000000;stroke-width:6;stroke-linecap:butt;stroke-linejoin:miter;stroke-miterlimit:9;shape-rendering:auto"
         cx="47.521809"
         cy="43.828526"
         id="4" />
      <circle
         r="30"
         style="opacity:1;fill:#90ee90;stroke:none;shape-rendering:auto"
         cx="47.521809"
         cy="43.828526"
         id="5" />
      <g
         aria-label="C"
         style="font-size:21px;font-family:'Microsoft Sans Serif';text-anchor:middle;opacity:1;fill:#000000;stroke:none;shape-rendering:auto"
         id="6">
        <path
           d="m 47.911457,51.558208 q -3.188965,0 -5.096191,-2.091797 -1.896973,-2.102051 -1.896973,-5.680664 0,-3.578613 1.896973,-5.67041 1.907226,-2.102051 5.096191,-2.102051 2.450684,0 4.17334,1.322754 1.722656,1.322754 1.937988,3.486328 h -2.050781 q -0.123047,-1.425293 -1.240723,-2.266113 -1.107422,-0.84082 -2.799316,-0.84082 -2.286621,0 -3.619629,1.579101 -1.333008,1.568848 -1.333008,4.491211 0,2.912109 1.322754,4.491211 1.322754,1.579102 3.588867,1.579102 1.763672,0 2.850586,-0.861329 1.086914,-0.861328 1.230469,-2.460937 h 2.050781 q -0.215332,2.399414 -1.886719,3.711914 -1.671386,1.3125 -4.224609,1.3125 z"
           style=""
           id="path4610" />
      </g>
    </g>
    <text
       transform="translate(-229.70957,-45.655361)"
       id="10"
       x="326"
       y="76"
       style="font-size:21px;font-family:'Microsoft Sans Serif';opacity:1;fill:#000000;stroke:none;shape-rendering:auto"
       clip-path="url(#12_text_clipper)">
      <tspan
         dy="15.75pt"
         id="14">Condition</tspan>
    </text>
  </g>
  <defs
     id="clips_hatches_and_gradients">
    <clipPath
       id="12_text_clipper">
      <rect
         x="326"
         y="76"
         width="98.629997"
         height="26.389999"
         id="13" />
    </clipPath>
  </defs>
</svg>
