<?xml version="1.0" encoding="UTF-8" standalone="no"?>
<svg
   xmlns:dc="http://purl.org/dc/elements/1.1/"
   xmlns:cc="http://creativecommons.org/ns#"
   xmlns:rdf="http://www.w3.org/1999/02/22-rdf-syntax-ns#"
   xmlns:svg="http://www.w3.org/2000/svg"
   xmlns="http://www.w3.org/2000/svg"
   xmlns:sodipodi="http://sodipodi.sourceforge.net/DTD/sodipodi-0.dtd"
   xmlns:inkscape="http://www.inkscape.org/namespaces/inkscape"
   width="48mm"
   height="23mm"
   id="SvgGdi_output"
   version="1.1"
   sodipodi:docname="inputmapping.svg"
   inkscape:version="0.92.3 (2405546, 2018-03-11)">
  <metadata
     id="metadata36">
    <rdf:RDF>
      <cc:Work
         rdf:about="">
        <dc:format>image/svg+xml</dc:format>
        <dc:type
           rdf:resource="http://purl.org/dc/dcmitype/StillImage" />
        <dc:title></dc:title>
      </cc:Work>
    </rdf:RDF>
  </metadata>
  <sodipodi:namedview
     pagecolor="#ffffff"
     bordercolor="#666666"
     borderopacity="1"
     objecttolerance="10"
     gridtolerance="10"
     guidetolerance="10"
     inkscape:pageopacity="0"
     inkscape:pageshadow="2"
     inkscape:window-width="1920"
     inkscape:window-height="1001"
     id="namedview34"
     showgrid="false"
     units="mm"
     inkscape:zoom="1.260455"
     inkscape:cx="49.585269"
     inkscape:cy="39.838863"
     inkscape:window-x="-9"
     inkscape:window-y="-9"
     inkscape:window-maximized="1"
     inkscape:current-layer="SvgGdi_output" />
  <g
     id="g69"
     transform="matrix(1.1432902,0,0,1.1432902,-118.90207,5.3190529)">
    <line
       y1="22"
       style="opacity:1;fill:none;stroke:#a9a9a9;stroke-width:1.25;stroke-linecap:butt;stroke-linejoin:miter;stroke-miterlimit:9;shape-rendering:auto"
       id="175"
       x2="200"
       y2="22"
       x1="145" />
    <circle
       id="177"
       cy="22.75"
       cx="222.75"
       style="opacity:1;fill:#449adf;stroke:none;stroke-width:1.25;shape-rendering:auto"
       r="18.75" />
    <path
       style="opacity:1;fill:none;stroke:#ffffff;stroke-width:2.5;stroke-linecap:butt;stroke-linejoin:miter;stroke-miterlimit:9;shape-rendering:auto"
       id="178"
       d="M 230.03,32.89375 V 12.873749 M 225.6965,25.85 V 19.917375 M 221.363,30.50575 V 15.262002 M 217.0295,27.281 v -8.794 m -4.3335,6.003375 V 21.2775"
       inkscape:connector-curvature="0" />
    <text
       id="179"
       x="204"
       y="47"
       style="font-size:13px;font-family:'Microsoft Sans Serif';opacity:1;fill:#000000;stroke:none;shape-rendering:auto"
       clip-path="url(#181_text_clipper)">
      <tspan
         dy="9.75pt"
         id="183">Threshold</tspan>
    </text>
    <path
       id="185"
       d="m 122.75,4 c 0.50155,0 0.99194,0 1.4835,0.040849 l 1.612,2.0482499 c 0.89826,0.16585 1.752,0.382 2.59462,0.6830625 l 2.34563,-0.9178875 c 0.88885,0.424825 1.75037,0.92935 2.555,1.4835 l 0.47087,2.43875 c 0.68164,0.5817251 1.33,1.2303121 1.91188,1.9118751 l 2.43875,0.429575 c 0.55352,0.804125 1.05909,1.708 1.4835,2.596126 l -0.96345,2.34575 c 0.30112,0.8427 0.56271,1.6965 0.72835,2.5945 l 2.04825,1.612 c 0.0387,0.4914 0.0412,0.98225 0.0412,1.4835 0,0.49045 -0.004,0.9615 -0.0412,1.4425 l -2.04825,1.607625 c -0.16275,0.882938 -0.38914,1.765625 -0.68283,2.5945 l 0.91789,2.391375 c -0.4258,0.892788 -0.92745,1.74725 -1.4835,2.555 l -2.43875,0.425425 c -0.58195,0.681588 -1.23027,1.32975 -1.91187,1.91175 l -0.47088,2.484375 c -0.80512,0.554738 -1.66562,1.058463 -2.555,1.483375 l -2.39112,-0.963312 c -0.83058,0.294562 -1.66488,0.56515 -2.54925,0.728487 l -1.61188,2.007 c -0.49161,0.0383 -0.982,0.08183 -1.4835,0.08183 -0.50155,0 -1.03315,-0.04219 -1.52475,-0.08183 l -1.52525,-2.007 c -0.87281,-0.160962 -1.77412,-0.4397 -2.59462,-0.728487 l -2.39112,0.963312 c -0.89392,-0.4263 -1.74613,-0.9264 -2.555,-1.483375 l -0.47089,-2.529625 c -0.66679,-0.57285 -1.29563,-1.197912 -1.86638,-1.8665 L 107.3377,33.34085 c -0.5561,-0.807737 -1.05775,-1.66225 -1.4835,-2.555 l 0.96345,-2.391375 c -0.28901,-0.8205 -0.56741,-1.7215 -0.72835,-2.5945 l -2.007,-1.5665 c -0.0387,-0.4914 -0.0824,-0.98185 -0.0824,-1.4835 0,-0.5013 0.0437,-0.992163 0.0824,-1.4835 l 2.007,-1.612 c 0.16306,-0.884275 0.43388,-1.718375 0.72835,-2.549 l -0.96345,-2.391379 c 0.42445,-0.8881 0.93004,-1.792 1.4835,-2.596125 l 2.48425,-0.429575 c 0.57079,-0.668712 1.1996,-1.293625 1.86638,-1.8664997 l 0.47089,-2.48425 c 0.80841,-0.5567501 1.66162,-1.0573875 2.55499,-1.4835 l 2.39113,0.9178874 c 0.82912,-0.293675 1.712,-0.520025 2.59462,-0.6830625 l 1.60763,-2.0482502 c 0.48093,-0.036965 0.95192,-0.040849 1.44225,-0.040849 z"
       style="opacity:1;fill:#808080;fill-rule:evenodd;stroke:none;stroke-width:1.25;shape-rendering:auto"
       inkscape:connector-curvature="0" />
    <path
       style="opacity:1;fill:#ffffff;fill-rule:evenodd;stroke:none;stroke-width:1.25;shape-rendering:auto"
       id="186"
       d="m 127.945,21.36 v -4.404125 -4.404126 l 7.62812,4.404126 L 131.759,19.158 Z"
       inkscape:connector-curvature="0" />
    <path
       style="opacity:1;fill:#ffffff;fill-rule:evenodd;stroke:none;stroke-width:1.25;shape-rendering:auto"
       id="187"
       d="M 127.945,32.7125 V 28.308375 23.90425 l 7.62812,4.404125 -3.81412,2.202125 z"
       inkscape:connector-curvature="0" />
    <path
       style="opacity:1;fill:none;stroke:#ffffff;stroke-width:2.5;stroke-linecap:butt;stroke-linejoin:miter;stroke-miterlimit:9;shape-rendering:auto"
       id="188"
       d="m 110.87512,28.355 h 6.4365 l 7.03125,-11.544375 h 3.87313 m -5.86987,8.6245 2.03999,2.918375 h 3.63913 m -17.15,-11.548875 h 6.573 l 1.75825,3.28375"
       inkscape:connector-curvature="0" />
    <text
       id="189"
       x="104"
       y="47"
       style="font-size:13px;font-family:'Microsoft Sans Serif';opacity:1;fill:#000000;stroke:none;shape-rendering:auto"
       clip-path="url(#191_text_clipper)">
      <tspan
         dy="9.75pt"
         id="193">InputMapping</tspan>
    </text>
  </g>
  <defs
     id="clips_hatches_and_gradients">
    <clipPath
       id="181_text_clipper">
      <rect
         x="204"
         y="47"
         width="63.950001"
         height="16.34"
         id="182" />
    </clipPath>
    <clipPath
       id="191_text_clipper">
      <rect
         x="104"
         y="47"
         width="85.550003"
         height="16.34"
         id="192" />
    </clipPath>
    <clipPath
       id="201_text_clipper">
      <rect
         x="4"
         y="47"
         width="51.959999"
         height="32.68"
         id="202" />
    </clipPath>
    <clipPath
       id="207_text_clipper">
      <rect
         x="4"
         y="61.709999"
         width="51.959999"
         height="32.68"
         id="208" />
    </clipPath>
  </defs>
</svg>
