<?xml version="1.0" encoding="UTF-8" standalone="no"?>
<svg
   xmlns:dc="http://purl.org/dc/elements/1.1/"
   xmlns:cc="http://creativecommons.org/ns#"
   xmlns:rdf="http://www.w3.org/1999/02/22-rdf-syntax-ns#"
   xmlns:svg="http://www.w3.org/2000/svg"
   xmlns="http://www.w3.org/2000/svg"
   xmlns:sodipodi="http://sodipodi.sourceforge.net/DTD/sodipodi-0.dtd"
   xmlns:inkscape="http://www.inkscape.org/namespaces/inkscape"
   width="100mm"
   height="21.673292mm"
   id="SvgGdi_output"
   version="1.1"
   sodipodi:docname="mouserescale.svg"
   inkscape:version="0.92.1 r15371">
  <metadata
     id="metadata4552">
    <rdf:RDF>
      <cc:Work
         rdf:about="">
        <dc:format>image/svg+xml</dc:format>
        <dc:type
           rdf:resource="http://purl.org/dc/dcmitype/StillImage" />
        <dc:title></dc:title>
      </cc:Work>
    </rdf:RDF>
  </metadata>
  <sodipodi:namedview
     pagecolor="#ffffff"
     bordercolor="#666666"
     borderopacity="1"
     objecttolerance="10"
     gridtolerance="10"
     guidetolerance="10"
     inkscape:pageopacity="0"
     inkscape:pageshadow="2"
     inkscape:window-width="3000"
     inkscape:window-height="1875"
     id="namedview4550"
     showgrid="false"
     fit-margin-top="0"
     fit-margin-left="0"
     fit-margin-right="0"
     fit-margin-bottom="0"
     inkscape:zoom="3.8719386"
     inkscape:cx="100.19833"
     inkscape:cy="40.957402"
     inkscape:window-x="-13"
     inkscape:window-y="-13"
     inkscape:window-maximized="1"
     inkscape:current-layer="SvgGdi_output"
     units="mm" />
  <g
     style="shape-rendering:auto"
     id="root_group"
     transform="matrix(0.8,0,0,0.8,0,-2.4630329e-6)">
    <circle
       id="46"
       cy="36"
       cx="356"
       style="opacity:1;fill:none;stroke:#000000;stroke-width:6;stroke-linecap:butt;stroke-linejoin:miter;stroke-miterlimit:9"
       r="30" />
    <circle
       id="47"
       cy="36"
       cx="356"
       style="opacity:1;fill:#ffffff;stroke:none"
       r="30" />
    <g
       aria-label="R"
       style="font-size:21px;font-family:'Microsoft Sans Serif';text-anchor:middle;opacity:1;fill:#000000;stroke:none"
       id="48">
      <path
         d="m 362.62402,43.473335 h -2.15332 l -1.41504,-4.009278 q -0.37939,-1.066406 -1.26123,-1.743164 -0.88183,-0.676757 -2.03027,-0.676757 h -3.68115 v 6.429199 h -1.98926 V 28.441108 h 6.65479 q 1.74316,0 2.85058,0.338379 1.10742,0.338379 1.80469,1.425293 0.69726,1.086914 0.69726,2.450684 0,1.558593 -0.90234,2.604492 -0.90234,1.045898 -2.47119,1.363769 v 0.04102 q 1.56885,0.502441 2.38916,2.717285 z m -10.54101,-8.213379 h 4.43994 q 1.85596,0 2.68652,-0.584473 0.84082,-0.584472 0.84082,-2.020019 0,-2.563477 -3.21972,-2.563477 h -4.74756 z"
         id="path5103"
         inkscape:connector-curvature="0" />
    </g>
    <text
       id="52"
       x="326"
       y="76"
       style="font-size:21px;font-family:'Microsoft Sans Serif';opacity:1;fill:#000000;stroke:none"
       clip-path="url(#54_text_clipper)">
      <tspan
         dy="15.75pt"
         id="56">Rescale</tspan>
    </text>
    <circle
       id="58"
       cy="36"
       cx="196"
       style="opacity:1;fill:none;stroke:#000000;stroke-width:6;stroke-linecap:butt;stroke-linejoin:miter;stroke-miterlimit:9"
       r="30" />
    <circle
       id="59"
       cy="36"
       cx="196"
       style="opacity:1;fill:#ffffff;stroke:none"
       r="30" />
    <g
       aria-label="S"
       style="font-size:21px;font-family:'Microsoft Sans Serif';text-anchor:middle;opacity:1;fill:#000000;stroke:none"
       id="60">
      <path
         d="m 196.33838,43.729682 q -3.17871,0 -4.75781,-1.425293 -1.56885,-1.425292 -1.65088,-3.660644 h 1.91748 q 0.15381,1.681641 1.39453,2.491699 1.25098,0.799805 3.01465,0.799805 1.67138,0 2.68652,-0.687012 1.02539,-0.687012 1.02539,-1.866211 0,-1.240722 -1.05615,-1.804687 -1.05615,-0.563965 -3.64014,-1.107422 -2.57373,-0.553711 -3.70166,-1.527832 -1.11767,-0.974121 -1.11767,-2.594238 0,-1.825196 1.45605,-2.994141 1.46631,-1.168945 3.88623,-1.168945 2.54297,0 4.10156,1.179199 1.5586,1.179199 1.65088,3.332519 h -1.93799 q -0.29736,-2.727539 -3.73242,-2.727539 -1.66113,0 -2.57373,0.625489 -0.9126,0.625488 -0.9126,1.661132 0,0.94336 0.72803,1.415039 0.73828,0.47168 2.7378,0.912598 2.00976,0.440918 3.18896,0.871582 1.1792,0.430664 2.02002,1.343262 0.84082,0.902344 0.84082,2.430176 0,1.937988 -1.54834,3.219726 -1.53809,1.281738 -4.01953,1.281738 z"
         id="path5100"
         inkscape:connector-curvature="0" />
    </g>
    <text
       id="64"
       x="166"
       y="76"
       style="font-size:21px;font-family:'Microsoft Sans Serif';opacity:1;fill:#000000;stroke:none"
       clip-path="url(#66_text_clipper)">
      <tspan
         dy="15.75pt"
         id="68">Source.X</tspan>
    </text>
    <line
       y1="36"
       style="opacity:1;fill:none;stroke:#000000;stroke-width:2;stroke-linecap:butt;stroke-linejoin:miter;stroke-miterlimit:9"
       id="70"
       x2="323"
       y2="36"
       x1="229" />
    <circle
       id="71"
       cy="36"
       cx="36"
       style="opacity:1;fill:none;stroke:#000000;stroke-width:6;stroke-linecap:butt;stroke-linejoin:miter;stroke-miterlimit:9"
       r="30" />
    <circle
       id="72"
       cy="36"
       cx="36"
       style="opacity:1;fill:#ee82ee;stroke:none"
       r="30" />
    <g
       aria-label="M"
       style="font-size:21px;font-family:'Microsoft Sans Serif';text-anchor:middle;opacity:1;fill:#000000;stroke:none"
       id="73">
      <path
         d="M 43.054687,43.473335 H 41.167969 V 30.686714 l -4.286133,12.786621 h -1.78418 L 30.811523,30.686714 V 43.473335 H 28.924805 V 28.441108 h 2.983886 l 4.070801,12.530274 4.091309,-12.530274 h 2.983886 z"
         id="path5097"
         inkscape:connector-curvature="0" />
    </g>
    <text
       id="77"
       x="6"
       y="76"
       style="font-size:21px;font-family:'Microsoft Sans Serif';opacity:1;fill:#000000;stroke:none"
       clip-path="url(#79_text_clipper)">
      <tspan
         dy="15.75pt"
         id="81">MouseMove</tspan>
    </text>
    <line
       y1="36"
       style="opacity:1;fill:none;stroke:#000000;stroke-width:2;stroke-linecap:butt;stroke-linejoin:miter;stroke-miterlimit:9"
       id="83"
       x2="163"
       y2="36"
       x1="69" />
  </g>
  <defs
     id="clips_hatches_and_gradients">
    <clipPath
       id="54_text_clipper">
      <rect
         x="326"
         y="76"
         width="85.269997"
         height="26.389999"
         id="55" />
    </clipPath>
    <clipPath
       id="66_text_clipper">
      <rect
         x="166"
         y="76"
         width="95.959999"
         height="26.389999"
         id="67" />
    </clipPath>
    <clipPath
       id="79_text_clipper">
      <rect
         x="6"
         y="76"
         width="124.81"
         height="26.389999"
         id="80" />
    </clipPath>
  </defs>
</svg>
