<?xml version="1.0" encoding="UTF-8" standalone="no"?>
<svg
   xmlns:dc="http://purl.org/dc/elements/1.1/"
   xmlns:cc="http://creativecommons.org/ns#"
   xmlns:rdf="http://www.w3.org/1999/02/22-rdf-syntax-ns#"
   xmlns:svg="http://www.w3.org/2000/svg"
   xmlns="http://www.w3.org/2000/svg"
   xmlns:sodipodi="http://sodipodi.sourceforge.net/DTD/sodipodi-0.dtd"
   xmlns:inkscape="http://www.inkscape.org/namespaces/inkscape"
   width="100mm"
   height="21.673294mm"
   id="SvgGdi_output"
   version="1.1"
   sodipodi:docname="mouserescale.svg"
   inkscape:version="0.92.3 (2405546, 2018-03-11)">
  <metadata
     id="metadata32">
    <rdf:RDF>
      <cc:Work
         rdf:about="">
        <dc:format>image/svg+xml</dc:format>
        <dc:type
           rdf:resource="http://purl.org/dc/dcmitype/StillImage" />
        <dc:title></dc:title>
      </cc:Work>
    </rdf:RDF>
  </metadata>
  <sodipodi:namedview
     pagecolor="#ffffff"
     bordercolor="#666666"
     borderopacity="1"
     objecttolerance="10"
     gridtolerance="10"
     guidetolerance="10"
     inkscape:pageopacity="0"
     inkscape:pageshadow="2"
     inkscape:window-width="1920"
     inkscape:window-height="1001"
     id="namedview30"
     showgrid="false"
     fit-margin-top="0"
     fit-margin-left="0"
     fit-margin-right="0"
     fit-margin-bottom="0"
     units="mm"
     inkscape:zoom="1.3087034"
     inkscape:cx="129.5175"
     inkscape:cy="32.544431"
     inkscape:window-x="-9"
     inkscape:window-y="-9"
     inkscape:window-maximized="1"
     inkscape:current-layer="SvgGdi_output" />
  <g
     id="root_group"
     style="shape-rendering:auto"
     transform="matrix(1.2585072,0,0,1.2585072,0,-2.0425151e-6)">
    <line
       x1="147.5"
       x2="200"
       y2="23.75"
       id="153"
       style="opacity:1;fill:none;stroke:#a9a9a9;stroke-width:1.25;stroke-linecap:butt;stroke-linejoin:miter;stroke-miterlimit:9"
       y1="23.75" />
    <line
       x1="47.5"
       x2="100"
       y2="23.75"
       id="154"
       style="opacity:1;fill:none;stroke:#a9a9a9;stroke-width:1.25;stroke-linecap:butt;stroke-linejoin:miter;stroke-miterlimit:9"
       y1="23.75" />
    <circle
       r="15"
       style="opacity:1;fill:#449adf;stroke:none"
       id="155"
       cx="15"
       cy="15"
       transform="matrix(1.25,0,0,1.25,205,5)" />
    <path
       inkscape:connector-curvature="0"
       style="opacity:1;fill:none;stroke:#ffffff;stroke-width:2;stroke-linecap:butt;stroke-linejoin:miter;stroke-miterlimit:9"
       id="156"
       transform="matrix(1.25,0,0,1.25,205,5)"
       d="M 20.824,23.115 V 7.098999 M 17.3572,17.48 v -4.7461 m -3.4668,8.4707 V 9.009602 M 10.4236,18.6248 V 11.5896 M 6.9568,16.3923 V 13.822" />
    <text
       x="205"
       y="48.75"
       id="157"
       style="font-size:13px;font-family:'Microsoft Sans Serif';opacity:1;fill:#000000;stroke:none"
       clip-path="url(#159_text_clipper)">
      <tspan
         id="161"
         dy="9.75pt">Rescale</tspan>
    </text>
    <circle
       r="15"
       style="opacity:1;fill:#449adf;stroke:none"
       id="163"
       cx="15"
       cy="15"
       transform="matrix(1.25,0,0,1.25,105,5)" />
    <path
       inkscape:connector-curvature="0"
       style="opacity:1;fill:#ffffff;fill-rule:evenodd;stroke:none"
       id="164"
       transform="matrix(1.25,0,0,1.25,105,5)"
       d="M 19.156,13.888 V 10.3647 6.841399 l 6.1025,3.523301 -3.0513,1.7617 z" />
    <path
       inkscape:connector-curvature="0"
       style="opacity:1;fill:#ffffff;fill-rule:evenodd;stroke:none"
       id="165"
       transform="matrix(1.25,0,0,1.25,105,5)"
       d="m 19.156,22.97 v -3.5233 -3.5233 l 6.1025,3.5233 -3.0513,1.7617 z" />
    <path
       inkscape:connector-curvature="0"
       style="opacity:1;fill:none;stroke:#ffffff;stroke-width:2;stroke-linecap:butt;stroke-linejoin:miter;stroke-miterlimit:9"
       id="166"
       transform="matrix(1.25,0,0,1.25,105,5)"
       d="m 5.5001,19.484 h 5.1492 l 5.625,-9.2355 h 3.0985 m -4.6959,6.8996 1.632,2.3347 h 2.9113 M 5.500199,10.2437 H 10.7586 l 1.4066,2.627" />
    <text
       x="105"
       y="48.75"
       id="167"
       style="font-size:13px;font-family:'Microsoft Sans Serif';opacity:1;fill:#000000;stroke:none"
       clip-path="url(#169_text_clipper)">
      <tspan
         id="171"
         dy="9.75pt">X</tspan>
    </text>
    <path
       inkscape:connector-curvature="0"
       id="173"
       transform="matrix(1.25,0,0,1.25,5,5)"
       style="opacity:1;fill:none;stroke:#a9a9a9;stroke-width:2;stroke-linecap:butt;stroke-linejoin:miter;stroke-miterlimit:9"
       d="m 31.179,5.2 c 3.8195,5.8918 3.8024,13.482 -0.04348,19.357" />
    <circle
       r="15"
       id="174"
       cx="15"
       cy="15"
       transform="matrix(1.25,0,0,1.25,5,5)"
       style="opacity:1;fill:#5bb27e;stroke:none" />
    <path
       inkscape:connector-curvature="0"
       style="opacity:1;fill:#ffffff;fill-rule:evenodd;stroke:none"
       id="175"
       transform="matrix(1.25,0,0,1.25,5,5)"
       d="M 8.5404,18.526 C 8.154759,18.14036 8.426559,17.3734 8.7512,17.0487 9.0693,16.7306 9.8857,16.65478 10.3397,17.03595 l 2.1904,1.7693 0.29084,-9.141104 c 0,-0.358289 0.60377,-0.924269 1.2316,-0.924269 0.74617,0 1.3151,0.576219 1.3151,0.95549 l 0.19096,5.347903 4.5059,1.703 c 0.18583,0.06373 0.43094,0.24909 0.43068,0.47598 l 0.0029,3.8276 -1.3849,2.3297 v 1.138 h -5.881 v -1.138 z" />
    <path
       inkscape:connector-curvature="0"
       style="opacity:1;fill:none;stroke:#ffffff;stroke-width:2;stroke-linecap:butt;stroke-linejoin:miter;stroke-miterlimit:9"
       id="176"
       transform="matrix(1.25,0,0,1.25,5,5)"
       d="m 10.482,12.156 c -1.418399,-2.2682 0.09104,-5.5872 2.7329,-6.0086 2.6015,-0.62394 5.2683,1.8624 4.8283,4.5011 l -0.06627,0.37741" />
    <text
       x="5"
       y="48.75"
       id="177"
       style="font-size:13px;font-family:'Microsoft Sans Serif';opacity:1;fill:#000000;stroke:none"
       clip-path="url(#179_text_clipper)">
      <tspan
         id="181"
         dy="9.75pt">MouseMove</tspan>
    </text>
  </g>
  <defs
     id="clips_hatches_and_gradients">
    <clipPath
       id="159_text_clipper">
      <rect
         id="160"
         width="52.779999"
         height="16.34"
         x="205"
         y="48.75" />
    </clipPath>
    <clipPath
       id="169_text_clipper">
      <rect
         id="170"
         width="13.26"
         height="16.34"
         x="105"
         y="48.75" />
    </clipPath>
    <clipPath
       id="179_text_clipper">
      <rect
         id="180"
         width="77.260002"
         height="16.34"
         x="5"
         y="48.75" />
    </clipPath>
  </defs>
</svg>
