<?xml version="1.0" encoding="UTF-8" standalone="no"?>
<svg
   xmlns:dc="http://purl.org/dc/elements/1.1/"
   xmlns:cc="http://creativecommons.org/ns#"
   xmlns:rdf="http://www.w3.org/1999/02/22-rdf-syntax-ns#"
   xmlns:svg="http://www.w3.org/2000/svg"
   xmlns="http://www.w3.org/2000/svg"
   xmlns:sodipodi="http://sodipodi.sourceforge.net/DTD/sodipodi-0.dtd"
   xmlns:inkscape="http://www.inkscape.org/namespaces/inkscape"
   width="481.00021"
   height="209.89984"
   id="SvgGdi_output"
   version="1.1"
   sodipodi:docname="sampleframe.svg"
   inkscape:version="0.92.3 (2405546, 2018-03-11)">
  <metadata
     id="metadata53">
    <rdf:RDF>
      <cc:Work
         rdf:about="">
        <dc:format>image/svg+xml</dc:format>
        <dc:type
           rdf:resource="http://purl.org/dc/dcmitype/StillImage" />
        <dc:title></dc:title>
      </cc:Work>
    </rdf:RDF>
  </metadata>
  <sodipodi:namedview
     pagecolor="#ffffff"
     bordercolor="#666666"
     borderopacity="1"
     objecttolerance="10"
     gridtolerance="10"
     guidetolerance="10"
     inkscape:pageopacity="0"
     inkscape:pageshadow="2"
     inkscape:window-width="1920"
     inkscape:window-height="1001"
     id="namedview51"
     showgrid="false"
     units="px"
     fit-margin-top="0"
     fit-margin-left="0"
     fit-margin-right="0"
     fit-margin-bottom="0"
     inkscape:zoom="0.89608386"
     inkscape:cx="189.1564"
     inkscape:cy="82.544445"
     inkscape:window-x="-9"
     inkscape:window-y="-9"
     inkscape:window-maximized="1"
     inkscape:current-layer="SvgGdi_output" />
  <g
     id="root_group"
     style="shape-rendering:auto"
     transform="scale(1.2714352)">
    <line
       x1="247.5"
       x2="300"
       y2="23.75"
       id="190"
       style="opacity:1;fill:none;stroke:#a9a9a9;stroke-width:1.25;stroke-linecap:butt;stroke-linejoin:miter;stroke-miterlimit:9"
       y1="23.75" />
    <line
       x1="147.5"
       x2="200"
       y2="23.75"
       id="191"
       style="opacity:1;fill:none;stroke:#a9a9a9;stroke-width:1.25;stroke-linecap:butt;stroke-linejoin:miter;stroke-miterlimit:9"
       y1="23.75" />
    <line
       x1="147.5"
       x2="200"
       y2="23.75"
       id="192"
       style="opacity:1;fill:none;stroke:#a9a9a9;stroke-width:1.25;stroke-linecap:butt;stroke-linejoin:miter;stroke-miterlimit:9"
       y1="123.75" />
    <line
       x1="47.5"
       x2="100"
       y2="23.75"
       id="193"
       style="opacity:1;fill:none;stroke:#a9a9a9;stroke-width:1.25;stroke-linecap:butt;stroke-linejoin:miter;stroke-miterlimit:9"
       y1="23.75" />
    <path
       inkscape:connector-curvature="0"
       style="opacity:1;fill:none;stroke:#a9a9a9;stroke-width:2;stroke-linecap:butt;stroke-linejoin:miter;stroke-miterlimit:9"
       id="194"
       transform="matrix(1.25,0,0,1.25,305,5)"
       d="M 10.158,33.2 C 3.4054,31.7591 -1.861,26.4692 -3.271,19.71" />
    <circle
       r="15"
       id="195"
       cx="15"
       cy="15"
       transform="matrix(1.25,0,0,1.25,305,5)"
       style="opacity:1;fill:#9b5bb3;stroke:none" />
    <path
       inkscape:connector-curvature="0"
       style="opacity:1;fill:#ffffff;fill-rule:evenodd;stroke:none"
       id="196"
       transform="matrix(1.25,0,0,1.25,305,5)"
       d="M 18.422,13 13.4357,18.5006 10.8556,15.9868 6.500101,20.5001 23.9571,20.48582 Z" />
    <circle
       r="2.75"
       style="opacity:1;fill:#ffffff;stroke:none"
       id="197"
       cx="10.92"
       cy="10.96"
       transform="matrix(1.25,0,0,1.25,305,5)" />
    <text
       x="305"
       y="48.75"
       id="198"
       style="font-size:13px;font-family:'Microsoft Sans Serif';opacity:1;fill:#000000;stroke:none"
       clip-path="url(#200_text_clipper)">
      <tspan
         id="202"
         dy="9.75pt">SaveImage</tspan>
    </text>
    <circle
       r="15"
       id="204"
       cx="15"
       cy="15"
       transform="matrix(1.25,0,0,1.25,205,5)"
       style="opacity:1;fill:#eec04b;stroke:none" />
    <path
       inkscape:connector-curvature="0"
       style="opacity:1;fill:#ffffff;fill-rule:evenodd;stroke:none"
       id="205"
       transform="matrix(1.25,0,0,1.25,205,5)"
       d="m 12.246,6.0137 v 0.00586 c -0.18794,7e-4 -0.35129,0.020875 -0.47852,0.046875 -0.89879,0.286301 -0.87117,0.86794 -1.8906,1.6191 -1.013501,0.578801 -1.5235,0.13438 -2.2617,0.73438 -0.73673,0.5956 -0.22226,1.962596 -0.53125,2.228496 -0.30671,0.5316 -1.2584,1.0063 -1.4316,1.6777 -0.14317,0.8587 0.38958,1.4709 0.36914,2.207 0.0614,0.6133 -0.6102,0.96178 -0.51367,1.459 0.28922,0.8121 0.84658,1.3001 1.1094,1.5254 0.046151,0.032 0.082828,0.08099 0.097656,0.08399 0.075857,0.1905 0.14373,0.38495 0.24023,0.56445 -0.00548,-0.026 -0.00651,-0.05213 -0.011719,-0.07813 0.054861,0.2176 0.11171,0.43619 0.189449,0.65039 1.5503,3.3608 5.681304,5.9479 10.209004,5.3789 2.1992,-0.2694 5.4826,-1.7854 6.8242,-5.3789 -0.94558,0.8485 -2.6345,1.586 -3.3887,1.6426 2.5527,-1.2757 3.9298,-3.4434 3.54299,-6.4062 -0.52877,1.2588 -1.2269,2.2267 -2.0996,2.8906 1.8538,-2.8897 1.5362,-4.3839 0.16407,-6.0254 0.98137,2.699 -0.28759,5.6945 -3.0527,7.8242 1.1203,0.1214 2.18449,-0.14787 3.1699,-0.95117 -1.4888,1.6607 -3.3523,2.4955 -5.4883,2.7227 1.0199,0.867 2.0045,1.259 2.9453,1.0918 -2.6144,0.7215 -4.8042,-0.07306 -7.4688,-2.7266 -0.13948,0.7143 0.61496,1.8268 1.3926,2.5371 -4.509502,-1.955 -4.906603,-8.042 0.58594,-9.5449 0.0033,0 0.0065,9e-4 0.0098,0 3.2713,1.9138 7.3868,1.7879 7.5723,0.55078 0.45807,-1.4829 -2.0857,-4.538497 -5.8887,-5.335897 -0.70028,-0.1367 -1.3698,-0.190479 -2.0078,-0.17188 0.01278,0 0.0243,2.39e-4 0.03711,-0.00977 -0.6074,-0.6489 -1.3815,-0.8145 -1.9453,-0.8125 z m 4.93169,3.033178 c 0.54604,0 1.0449,0.49697 1.0449,1.043002 0,0.5461 -0.49888,1.043 -1.0449,1.043 -0.54604,0 -1.043,-0.49687 -1.043,-1.043 5e-5,-0.546001 0.49693,-1.043102 1.043,-1.043002 z" />
    <text
       x="205"
       y="48.75"
       id="206"
       style="font-size:13px;font-family:'Microsoft Sans Serif';opacity:1;fill:#000000;stroke:none"
       clip-path="url(#208_text_clipper)">
      <tspan
         id="210"
         dy="9.75pt">Sample</tspan>
    </text>
    <circle
       r="15"
       id="212"
       cx="15"
       cy="15"
       transform="matrix(1.25,0,0,1.25,105,5)"
       style="opacity:1;fill:#449adf;stroke:none" />
    <path
       inkscape:connector-curvature="0"
       style="opacity:1;fill:#ffffff;fill-rule:evenodd;stroke:none"
       id="213"
       transform="matrix(1.25,0,0,1.25,105,5)"
       d="M 18.422,13 13.4357,18.5006 10.8556,15.9868 6.500101,20.5001 23.9571,20.48582 Z" />
    <circle
       r="2.75"
       style="opacity:1;fill:#ffffff;stroke:none"
       id="214"
       cx="10.92"
       cy="10.96"
       transform="matrix(1.25,0,0,1.25,105,5)" />
    <text
       x="105"
       y="48.75"
       id="215"
       style="font-size:13px;font-family:'Microsoft Sans Serif';opacity:1;fill:#000000;stroke:none"
       clip-path="url(#217_text_clipper)">
      <tspan
         id="219"
         dy="9.75pt">Grayscale</tspan>
    </text>
    <path
       inkscape:connector-curvature="0"
       style="opacity:1;fill:none;stroke:#a9a9a9;stroke-width:2;stroke-linecap:butt;stroke-linejoin:miter;stroke-miterlimit:9"
       id="221"
       transform="matrix(1.25,0,0,1.25,105,105)"
       d="m 31.179,5.2 c 3.8195,5.8918 3.8024,13.482 -0.04348,19.357" />
    <circle
       r="15"
       style="opacity:1;fill:#5bb27e;stroke:none"
       id="222"
       cx="15"
       cy="15"
       transform="matrix(1.25,0,0,1.25,105,105)" />
    <path
       inkscape:connector-curvature="0"
       style="opacity:1;fill:#ffffff;fill-rule:evenodd;stroke:none"
       id="223"
       transform="matrix(1.25,0,0,1.25,105,105)"
       d="M 8.5404,18.526 C 8.154759,18.14036 8.426559,17.3734 8.7512,17.0487 9.0693,16.7306 9.8857,16.65478 10.3397,17.03595 l 2.1904,1.7693 0.29084,-9.141104 c 0,-0.358289 0.60377,-0.924269 1.2316,-0.924269 0.74617,0 1.3151,0.576219 1.3151,0.95549 l 0.19096,5.347903 4.5059,1.703 c 0.18583,0.06373 0.43094,0.24909 0.43068,0.47598 l 0.0029,3.8276 -1.3849,2.3297 v 1.138 h -5.881 v -1.138 z" />
    <path
       inkscape:connector-curvature="0"
       id="224"
       transform="matrix(1.25,0,0,1.25,105,105)"
       style="opacity:1;fill:none;stroke:#ffffff;stroke-width:2;stroke-linecap:butt;stroke-linejoin:miter;stroke-miterlimit:9"
       d="m 10.482,12.156 c -1.418399,-2.2682 0.09104,-5.5872 2.7329,-6.0086 2.6015,-0.62394 5.2683,1.8624 4.8283,4.5011 l -0.06627,0.37741" />
    <text
       x="105"
       y="148.75"
       id="225"
       style="font-size:13px;font-family:'Microsoft Sans Serif';opacity:1;fill:#000000;stroke:none"
       clip-path="url(#227_text_clipper)">
      <tspan
         id="229"
         dy="9.75pt">KeyDown</tspan>
    </text>
    <path
       inkscape:connector-curvature="0"
       style="opacity:1;fill:none;stroke:#a9a9a9;stroke-width:2;stroke-linecap:butt;stroke-linejoin:miter;stroke-miterlimit:9"
       id="231"
       transform="matrix(1.25,0,0,1.25,5,5)"
       d="m 31.179,5.2 c 3.8195,5.8918 3.8024,13.482 -0.04348,19.357" />
    <circle
       r="15"
       style="opacity:1;fill:#5bb27e;stroke:none"
       id="232"
       cx="15"
       cy="15"
       transform="matrix(1.25,0,0,1.25,5,5)" />
    <path
       inkscape:connector-curvature="0"
       style="opacity:1;fill:#ffffff;fill-rule:evenodd;stroke:none"
       id="233"
       transform="matrix(1.25,0,0,1.25,5,5)"
       d="m 23.75,9.1 -4.1913,2.4211 v 6.8726 l 4.1913,2.421 z" />
    <path
       inkscape:connector-curvature="0"
       style="opacity:1;fill:#ffffff;fill-rule:evenodd;stroke:none"
       id="234"
       transform="matrix(1.25,0,0,1.25,5,5)"
       d="m 8.6927,9.2 h 7.0267 c 1.4706,0 2.6545,1.2337 2.6545,2.7661 v 5.8573 c 0,1.5324 -1.1839,2.7659 -2.6545,2.7659 H 8.692701 c -1.4706,0 -2.6545,-1.2335 -2.6545,-2.7659 v -5.8573 c 0,-1.5324 1.1839,-2.766101 2.6545,-2.766101 z" />
    <text
       x="5"
       y="48.75"
       id="235"
       style="font-size:13px;font-family:'Microsoft Sans Serif';opacity:1;fill:#000000;stroke:none"
       clip-path="url(#237_text_clipper)">
      <tspan
         id="239"
         dy="9.75pt">Camera</tspan>
    </text>
    <text
       x="5"
       y="63.459999"
       id="241"
       style="font-size:13px;font-family:'Microsoft Sans Serif';opacity:1;fill:#000000;stroke:none"
       clip-path="url(#243_text_clipper)">
      <tspan
         id="245"
         dy="9.75pt">Capture</tspan>
    </text>
  </g>
  <defs
     id="clips_hatches_and_gradients">
    <clipPath
       id="200_text_clipper">
      <rect
         id="201"
         width="72.059998"
         height="16.34"
         x="305"
         y="48.75" />
    </clipPath>
    <clipPath
       id="208_text_clipper">
      <rect
         id="209"
         width="49.810001"
         height="16.34"
         x="205"
         y="48.75" />
    </clipPath>
    <clipPath
       id="217_text_clipper">
      <rect
         id="218"
         width="64.690002"
         height="16.34"
         x="105"
         y="48.75" />
    </clipPath>
    <clipPath
       id="227_text_clipper">
      <rect
         id="228"
         width="61.630001"
         height="16.34"
         x="105"
         y="148.75" />
    </clipPath>
    <clipPath
       id="237_text_clipper">
      <rect
         id="238"
         width="51.959999"
         height="32.68"
         x="5"
         y="48.75" />
    </clipPath>
    <clipPath
       id="243_text_clipper">
      <rect
         id="244"
         width="51.959999"
         height="32.68"
         x="5"
         y="63.459999" />
    </clipPath>
  </defs>
</svg>
