<?xml version="1.0" encoding="utf-8" standalone="yes"?><!DOCTYPE svg PUBLIC "-//W3C//DTD SVG 1.1//EN" "http://www.w3.org/Graphics/SVG/1.1/DTD/svg11.dtd"[
<!ENTITY E1 'stroke-miterlimit:9;stroke-linecap:butt;opacity:1;stroke-width:6;fill:none;stroke-linejoin:miter;stroke:rgb(0,0,0);'><!ENTITY E8 'stroke-miterlimit:9;stroke-linecap:butt;opacity:1;stroke-width:2;fill:none;stroke-linejoin:miter;stroke:rgb(0,0,0);'><!ENTITY E4 'matrix(1.00 0.00 0.00 1.00 0.00 0.00 ) '><!ENTITY E11 'opacity:1;stroke:none;fill:rgb(238,130,238);'><!ENTITY E3 'fill:rgb(0,0,0);text-anchor:middle;font-size:15.75pt;opacity:1;font-family:Microsoft Sans Serif;stroke:none;'>
]><svg width="602.4092" height="262.3936" id="SvgGdi_output" xmlns="http://www.w3.org/2000/svg"><rect width="100.00%" x="0.00" y="0.00" height="100.00%" id="background" style="fill:rgb(255,255,255);" /><g id="root_group" style="shape-rendering:auto;"><ellipse ry="30.00" style="&E1;" id="4" cx="516.00" rx="30.00" cy="36.00" /><ellipse ry="30.00" id="5" cx="516.00" rx="30.00" cy="36.00" style="opacity:1;stroke:none;fill:rgb(169,169,169);" /><text x="516.00" y="37.38" id="6" style="&E3;" transform="&E4;"><tspan id="8" dy="4.57pt">S</tspan></text><text x="486.00" y="76.00" id="10" transform="&E4;" style="fill:rgb(0,0,0);clip-path:url(#12_text_clipper);font-size:15.75pt;opacity:1;font-family:Microsoft Sans Serif;stroke:none;"><tspan id="14" dy="15.75pt">SaveImage</tspan></text><ellipse ry="30.00" style="&E1;" id="16" cx="356.00" rx="30.00" cy="36.00" /><ellipse ry="30.00" id="17" cx="356.00" rx="30.00" cy="36.00" style="opacity:1;stroke:none;fill:rgb(173,216,230);" /><text x="356.00" y="37.38" id="18" style="&E3;" transform="&E4;"><tspan id="20" dy="4.57pt">S</tspan></text><text x="326.00" y="76.00" id="22" transform="&E4;" style="fill:rgb(0,0,0);clip-path:url(#24_text_clipper);font-size:15.75pt;opacity:1;font-family:Microsoft Sans Serif;stroke:none;"><tspan id="26" dy="15.75pt">Sample</tspan></text><line x1="389.00" x2="483.00" y2="36.00" id="28" style="&E8;" y1="36.00" /><ellipse ry="30.00" style="&E1;" id="29" cx="196.00" rx="30.00" cy="36.00" /><ellipse ry="30.00" id="30" cx="196.00" rx="30.00" cy="36.00" style="opacity:1;stroke:none;fill:rgb(255,255,255);" /><text x="196.00" y="37.38" id="31" style="&E3;" transform="&E4;"><tspan id="33" dy="4.57pt">G</tspan></text><text x="166.00" y="76.00" id="35" transform="&E4;" style="fill:rgb(0,0,0);clip-path:url(#37_text_clipper);font-size:15.75pt;opacity:1;font-family:Microsoft Sans Serif;stroke:none;"><tspan id="39" dy="15.75pt">Grayscale</tspan></text><line x1="229.00" x2="323.00" y2="36.00" id="41" style="&E8;" y1="36.00" /><ellipse ry="30.00" style="&E1;" id="42" cx="196.00" rx="30.00" cy="196.00" /><ellipse ry="30.00" style="&E11;" id="43" cx="196.00" rx="30.00" cy="196.00" /><text x="196.00" y="197.38" id="44" style="&E3;" transform="&E4;"><tspan id="46" dy="4.57pt">K</tspan></text><text x="166.00" y="236.00" id="48" transform="&E4;" style="fill:rgb(0,0,0);clip-path:url(#50_text_clipper);font-size:15.75pt;opacity:1;font-family:Microsoft Sans Serif;stroke:none;"><tspan id="52" dy="15.75pt">KeyDown</tspan></text><line x1="229.00" x2="323.00" y2="36.00" id="54" style="&E8;" y1="196.00" /><ellipse ry="30.00" style="&E1;" id="55" cx="36.00" rx="30.00" cy="36.00" /><ellipse ry="30.00" style="&E11;" id="56" cx="36.00" rx="30.00" cy="36.00" /><text x="36.00" y="37.38" id="57" style="&E3;" transform="&E4;"><tspan id="59" dy="4.57pt">F</tspan></text><text x="6.00" y="76.00" id="61" transform="&E4;" style="fill:rgb(0,0,0);clip-path:url(#63_text_clipper);font-size:15.75pt;opacity:1;font-family:Microsoft Sans Serif;stroke:none;"><tspan id="65" dy="15.75pt">FileCapture</tspan></text><line x1="69.00" x2="163.00" y2="36.00" id="67" style="&E8;" y1="36.00" /></g><defs id="clips_hatches_and_gradients"><clipPath id="12_text_clipper"><rect id="13" width="116.41" height="26.39" x="486.00" y="76.00" /></clipPath><clipPath id="24_text_clipper"><rect id="25" width="80.46" height="26.39" x="326.00" y="76.00" /></clipPath><clipPath id="37_text_clipper"><rect id="38" width="104.49" height="26.39" x="166.00" y="76.00" /></clipPath><clipPath id="50_text_clipper"><rect id="51" width="99.56" height="26.39" x="166.00" y="236.00" /></clipPath><clipPath id="63_text_clipper"><rect id="64" width="119.04" height="26.39" x="6.00" y="76.00" /></clipPath></defs></svg>