<?xml version="1.0" encoding="UTF-8" standalone="no"?>
<!-- Created with Inkscape (http://www.inkscape.org/) -->

<svg
   xmlns:dc="http://purl.org/dc/elements/1.1/"
   xmlns:cc="http://creativecommons.org/ns#"
   xmlns:rdf="http://www.w3.org/1999/02/22-rdf-syntax-ns#"
   xmlns:svg="http://www.w3.org/2000/svg"
   xmlns="http://www.w3.org/2000/svg"
   xmlns:sodipodi="http://sodipodi.sourceforge.net/DTD/sodipodi-0.dtd"
   xmlns:inkscape="http://www.inkscape.org/namespaces/inkscape"
   width="35mm"
   height="12mm"
   viewBox="0 0 35.000001 12"
   version="1.1"
   id="svg5856"
   inkscape:version="0.92.1 r15371"
   sodipodi:docname="sink.svg">
  <defs
     id="defs5850">
    <clipPath
       id="36_text_clipper">
      <rect
         x="6"
         y="396"
         width="49.209999"
         height="26.389999"
         id="37" />
    </clipPath>
  </defs>
  <sodipodi:namedview
     id="base"
     pagecolor="#ffffff"
     bordercolor="#666666"
     borderopacity="1.0"
     inkscape:pageopacity="0.0"
     inkscape:pageshadow="2"
     inkscape:zoom="4.1588713"
     inkscape:cx="32.999982"
     inkscape:cy="18.871809"
     inkscape:document-units="mm"
     inkscape:current-layer="layer1"
     showgrid="false"
     fit-margin-top="0"
     fit-margin-left="0"
     fit-margin-right="0"
     fit-margin-bottom="0"
     inkscape:window-width="3000"
     inkscape:window-height="1875"
     inkscape:window-x="-13"
     inkscape:window-y="-13"
     inkscape:window-maximized="1" />
  <metadata
     id="metadata5853">
    <rdf:RDF>
      <cc:Work
         rdf:about="">
        <dc:format>image/svg+xml</dc:format>
        <dc:type
           rdf:resource="http://purl.org/dc/dcmitype/StillImage" />
        <dc:title></dc:title>
      </cc:Work>
    </rdf:RDF>
  </metadata>
  <g
     inkscape:label="Layer 1"
     inkscape:groupmode="layer"
     id="layer1"
     transform="translate(-174.96518,-148.63008)">
    <g
       transform="matrix(0.18181818,0,0,0.18181818,174.41973,89.902803)"
       id="g4563">
      <circle
         id="28"
         cy="356"
         cx="36"
         style="opacity:1;fill:none;stroke:#000000;stroke-width:6;stroke-linecap:butt;stroke-linejoin:miter;stroke-miterlimit:9;shape-rendering:auto"
         r="30" />
      <circle
         id="29"
         cy="356"
         cx="36"
         style="opacity:1;fill:#a9a9a9;stroke:none;shape-rendering:auto"
         r="30" />
      <g
         aria-label="S"
         style="font-size:21px;font-family:'Microsoft Sans Serif';text-anchor:middle;opacity:1;fill:#000000;stroke:none;shape-rendering:auto"
         id="30">
        <path
           d="m 36.338379,363.72969 q -3.178711,0 -4.757813,-1.4253 -1.568847,-1.42529 -1.650879,-3.66064 h 1.917481 q 0.153809,1.68164 1.394531,2.4917 1.250977,0.7998 3.014649,0.7998 1.671386,0 2.686523,-0.68701 1.025391,-0.68701 1.025391,-1.86621 0,-1.24072 -1.056153,-1.80469 -1.056152,-0.56396 -3.640136,-1.10742 -2.573731,-0.55371 -3.701661,-1.52783 -1.117675,-0.97412 -1.117675,-2.59424 0,-1.82519 1.456054,-2.99414 1.466309,-1.16895 3.886231,-1.16895 2.542969,0 4.101562,1.1792 1.558594,1.1792 1.650879,3.33252 h -1.937988 q -0.297363,-2.72754 -3.732422,-2.72754 -1.661133,0 -2.57373,0.62549 -0.912598,0.62549 -0.912598,1.66114 0,0.94335 0.728027,1.41503 0.738282,0.47168 2.737793,0.9126 2.009766,0.44092 3.188965,0.87158 1.179199,0.43067 2.02002,1.34327 0.84082,0.90234 0.84082,2.43017 0,1.93799 -1.54834,3.21973 -1.538086,1.28174 -4.019531,1.28174 z"
           id="path6423"
           inkscape:connector-curvature="0" />
      </g>
      <text
         id="34"
         x="6"
         y="396"
         style="font-size:21px;font-family:'Microsoft Sans Serif';opacity:1;fill:#000000;stroke:none;shape-rendering:auto"
         clip-path="url(#36_text_clipper)"
         transform="translate(78.809616,-53.483887)">
        <tspan
           dy="15.75pt"
           id="38">Sink</tspan>
      </text>
    </g>
  </g>
</svg>
