<?xml version="1.0" encoding="UTF-8" standalone="no"?>
<svg
   xmlns:dc="http://purl.org/dc/elements/1.1/"
   xmlns:cc="http://creativecommons.org/ns#"
   xmlns:rdf="http://www.w3.org/1999/02/22-rdf-syntax-ns#"
   xmlns:svg="http://www.w3.org/2000/svg"
   xmlns="http://www.w3.org/2000/svg"
   xmlns:sodipodi="http://sodipodi.sourceforge.net/DTD/sodipodi-0.dtd"
   xmlns:inkscape="http://www.inkscape.org/namespaces/inkscape"
   width="381.07144"
   height="81.914803"
   id="SvgGdi_output"
   version="1.1"
   sodipodi:docname="wavplayback.svg"
   inkscape:version="0.92.1 r15371">
  <metadata
     id="metadata34">
    <rdf:RDF>
      <cc:Work
         rdf:about="">
        <dc:format>image/svg+xml</dc:format>
        <dc:type
           rdf:resource="http://purl.org/dc/dcmitype/StillImage" />
        <dc:title></dc:title>
      </cc:Work>
    </rdf:RDF>
  </metadata>
  <sodipodi:namedview
     pagecolor="#ffffff"
     bordercolor="#666666"
     borderopacity="1"
     objecttolerance="10"
     gridtolerance="10"
     guidetolerance="10"
     inkscape:pageopacity="0"
     inkscape:pageshadow="2"
     inkscape:window-width="3000"
     inkscape:window-height="1875"
     id="namedview32"
     showgrid="false"
     inkscape:zoom="2.3638612"
     inkscape:cx="23.263323"
     inkscape:cy="82.570794"
     inkscape:window-x="-13"
     inkscape:window-y="-13"
     inkscape:window-maximized="1"
     inkscape:current-layer="SvgGdi_output"
     fit-margin-top="0"
     fit-margin-left="0"
     fit-margin-right="0"
     fit-margin-bottom="0" />
  <g
     style="shape-rendering:auto"
     id="root_group"
     transform="matrix(0.8,0,0,0.8,-1.2062988e-6,-3.1890869e-7)">
    <circle
       id="4"
       cy="36"
       cx="356"
       style="opacity:1;fill:none;stroke:#000000;stroke-width:6;stroke-linecap:butt;stroke-linejoin:miter;stroke-miterlimit:9"
       r="30" />
    <circle
       id="5"
       cy="36"
       cx="356"
       style="opacity:1;fill:#a9a9a9;stroke:none"
       r="30" />
    <g
       aria-label="A"
       style="font-size:21px;font-family:'Microsoft Sans Serif';text-anchor:middle;opacity:1;fill:#000000;stroke:none"
       id="6">
      <path
         d="m 358.44043,37.320991 -2.64551,-6.972656 -2.52246,6.972656 z m 4.57324,6.152344 h -2.2456 l -1.74317,-4.573242 h -6.2959 l -1.66113,4.573242 h -2.10205 l 5.77295,-15.032227 h 2.14307 z"
         id="path4517"
         inkscape:connector-curvature="0" />
    </g>
    <text
       id="10"
       x="326"
       y="76"
       style="font-size:21px;font-family:'Microsoft Sans Serif';opacity:1;fill:#000000;stroke:none"
       clip-path="url(#12_text_clipper)">
      <tspan
         dy="15.75pt"
         id="14">AudioPlayback</tspan>
    </text>
    <circle
       id="16"
       cy="36"
       cx="196"
       style="opacity:1;fill:none;stroke:#000000;stroke-width:6;stroke-linecap:butt;stroke-linejoin:miter;stroke-miterlimit:9"
       r="30" />
    <circle
       id="17"
       cy="36"
       cx="196"
       style="opacity:1;fill:#ffffff;stroke:none"
       r="30" />
    <g
       aria-label="C"
       style="font-size:21px;font-family:'Microsoft Sans Serif';text-anchor:middle;opacity:1;fill:#000000;stroke:none"
       id="18">
      <path
         d="m 196.38965,43.729682 q -3.18897,0 -5.09619,-2.091796 -1.89698,-2.102051 -1.89698,-5.680664 0,-3.578614 1.89698,-5.670411 1.90722,-2.10205 5.09619,-2.10205 2.45068,0 4.17334,1.322753 1.72265,1.322754 1.93799,3.486329 h -2.05078 q -0.12305,-1.425293 -1.24073,-2.266114 -1.10742,-0.84082 -2.79931,-0.84082 -2.28662,0 -3.61963,1.579102 -1.33301,1.568847 -1.33301,4.491211 0,2.912109 1.32275,4.49121 1.32276,1.579102 3.58887,1.579102 1.76367,0 2.85059,-0.861328 1.08691,-0.861328 1.23047,-2.460938 h 2.05078 q -0.21534,2.399414 -1.88672,3.711914 -1.67139,1.3125 -4.22461,1.3125 z"
         id="path4514"
         inkscape:connector-curvature="0" />
    </g>
    <text
       id="22"
       x="166"
       y="76"
       style="font-size:21px;font-family:'Microsoft Sans Serif';opacity:1;fill:#000000;stroke:none"
       clip-path="url(#24_text_clipper)">
      <tspan
         dy="15.75pt"
         id="26">ConvertScale</tspan>
    </text>
    <line
       y1="36"
       style="opacity:1;fill:none;stroke:#000000;stroke-width:2;stroke-linecap:butt;stroke-linejoin:miter;stroke-miterlimit:9"
       id="28"
       x2="323"
       y2="36"
       x1="229" />
    <circle
       id="29"
       cy="36"
       cx="36"
       style="opacity:1;fill:none;stroke:#000000;stroke-width:6;stroke-linecap:butt;stroke-linejoin:miter;stroke-miterlimit:9"
       r="30" />
    <circle
       id="30"
       cy="36"
       cx="36"
       style="opacity:1;fill:#ee82ee;stroke:none"
       r="30" />
    <g
       aria-label="A"
       style="font-size:21px;font-family:'Microsoft Sans Serif';text-anchor:middle;opacity:1;fill:#000000;stroke:none"
       id="31">
      <path
         d="m 38.44043,37.320991 -2.645508,-6.972656 -2.522461,6.972656 z m 4.573242,6.152344 h -2.245606 l -1.743164,-4.573242 h -6.295898 l -1.661133,4.573242 H 28.96582 l 5.77295,-15.032227 h 2.143066 z"
         id="path4511"
         inkscape:connector-curvature="0" />
    </g>
    <text
       id="35"
       x="6"
       y="76"
       style="font-size:21px;font-family:'Microsoft Sans Serif';opacity:1;fill:#000000;stroke:none"
       clip-path="url(#37_text_clipper)">
      <tspan
         dy="15.75pt"
         id="39">AudioReader</tspan>
    </text>
    <line
       y1="36"
       style="opacity:1;fill:none;stroke:#000000;stroke-width:2;stroke-linecap:butt;stroke-linejoin:miter;stroke-miterlimit:9"
       id="41"
       x2="163"
       y2="36"
       x1="69" />
  </g>
  <defs
     id="clips_hatches_and_gradients">
    <clipPath
       id="12_text_clipper">
      <rect
         x="326"
         y="76"
         width="150.34"
         height="26.389999"
         id="13" />
    </clipPath>
    <clipPath
       id="24_text_clipper">
      <rect
         x="166"
         y="76"
         width="136.96001"
         height="26.389999"
         id="25" />
    </clipPath>
    <clipPath
       id="37_text_clipper">
      <rect
         x="6"
         y="76"
         width="133.37"
         height="26.389999"
         id="38" />
    </clipPath>
  </defs>
</svg>
